<?xml version="1.0" standalone="no"?>
<!DOCTYPE svg PUBLIC "-//W3C//DTD SVG 1.1//EN" "http://www.w3.org/Graphics/SVG/1.1/DTD/svg11.dtd" >
<svg xmlns="http://www.w3.org/2000/svg">
<metadata>
<json>
<![CDATA[
{
	"fontFamily": "HyloCore05-10-16",
	"majorVersion": 1,
	"minorVersion": 0,
	"version": "Version 1.0",
	"fontId": "HyloCore05-10-16",
	"psName": "HyloCore05-10-16",
	"subFamily": "Regular",
	"fullName": "HyloCore05-10-16",
	"description": "Font generated by IcoMoon."
}
]]>
</json>
</metadata>
<defs>
<font id="HyloCore05-10-16" horiz-adv-x="512">
<font-face units-per-em="512" ascent="480" descent="-32" />
<missing-glyph horiz-adv-x="512" />
<glyph unicode="&#x20;" horiz-adv-x="256" d="" />
<glyph unicode="&#xe628;" glyph-name="merkaba" data-tags="merkaba" horiz-adv-x="663" d="M346.938 479.163c9.621-1.339 19.158-2.51 28.779-4.015 20.329-3.263 39.906-9.203 58.813-17.569 17.82-7.864 34.3-17.82 49.694-29.7 18.991-14.64 35.806-31.54 50.531-50.447 12.381-15.979 23.006-33.13 30.787-51.786 5.019-12.047 9.119-24.512 12.466-37.061 8.45-30.954 9.956-62.578 6.609-94.369-4.266-39.655-17.067-76.382-39.404-109.678-19.827-29.615-44.507-54.379-73.872-74.374-20.998-14.306-43.921-24.847-68.601-31.791-34.468-9.788-69.354-11.545-104.743-7.781-21.668 2.342-42.666 7.697-62.745 15.812-26.436 10.625-50.614 25.182-71.362 44.758-13.302 12.632-26.018 26.019-37.731 40.073-11.963 14.389-21.166 30.87-28.862 48.021-9.287 20.748-15.645 42.5-18.74 65.004-3.932 28.026-3.849 56.219 0.753 84.162 5.103 30.87 15.728 59.984 32.209 86.672 12.549 20.246 27.608 38.4 45.009 54.798 16.649 15.728 34.803 29.197 54.881 40.073 19.075 10.374 39.321 18.154 60.653 22.421 12.967 2.594 26.185 3.932 39.32 5.94 1.255 0.168 2.426 0.586 3.681 0.921 10.541-0.084 21.166-0.084 31.875-0.084zM564.12 222.243c4.015 121.474-98.97 231.237-225.213 235.252-128.251 4.099-236.674-98.468-241.778-223.707-5.354-131.179 99.723-240.69 228.476-243.87 125.49-3.179 240.021 100.643 238.515 232.324zM219.691 319.791c18.405 10.541 37.313 21.417 56.22 32.293 7.864 4.517 15.728 8.952 23.341 13.721 1.004 0.669 1.589 3.179 1.339 4.685-3.514 20.246 11.88 37.898 32.125 36.559 11.796-0.753 22.923-9.704 26.269-20.998 1.589-5.187 2.677-10.207 0.921-15.644-0.418-1.339 0.837-4.099 2.175-4.853 25.767-15.059 51.618-29.95 77.469-44.758 1.087-0.585 3.346-0.251 4.434 0.585 12.632 9.788 26.269 10.541 39.404 1.673 9.286-6.274 15.226-22.923 9.872-34.551-4.183-9.202-10.207-15.31-19.66-18.489-1.255-0.418-2.342-3.179-2.342-4.936-0.168-22.505-0.084-45.009-0.084-67.514 0-6.609 0.084-13.302-0.084-19.911-0.084-3.012 0.837-4.769 3.932-5.605 15.394-4.267 23.425-23.090 19.325-35.974-5.271-16.649-20.748-26.019-36.978-21.668-4.517 1.255-8.7 4.015-12.549 6.776-2.175 1.589-3.598 2.091-5.94 0.753-24.847-14.389-49.694-28.695-74.541-43.002-3.764-2.175-5.103-4.434-4.183-9.202 2.091-10.457-1.924-19.577-9.788-26.437-13.135-11.378-32.125-9.788-43.419 3.346-6.274 7.279-8.031 16.063-6.274 25.433 0.502 2.677 0.168 3.932-2.342 5.354-15.477 8.784-30.787 17.736-46.096 26.688-9.453 5.522-18.991 10.876-28.445 16.565-3.346 2.008-5.354 2.426-9.119-0.502-11.964-9.538-27.608-9.788-40.575 2.091-9.704 8.868-11.127 27.44-3.346 38.483 3.764 5.354 8.45 9.286 14.724 11.127 3.346 1.004 4.434 3.012 4.434 6.442-0.083 28.695-0.083 57.307 0 86.002 0 2.677-0.083 4.936-3.43 6.024-18.405 6.107-23.927 24.094-18.991 38.986 5.103 15.477 21.668 23.425 38.149 18.154 4.768-1.589 8.952-4.853 14.055-7.697zM324.267 232.031c0 20.162 0 38.734 0 57.307 0 3.095-2.008 3.179-4.267 3.179-9.202 0-18.405 0.167-27.692-0.168-1.757-0.083-4.015-1.339-5.019-2.761-3.514-5.354-6.609-11.043-9.788-16.649-2.008-3.43-3.849-6.944-5.94-10.625 17.652-10.039 34.635-19.827 52.706-30.285zM336.983 232.282c17.067 9.872 33.38 19.242 49.527 28.779 0.837 0.502 1.171 3.513 0.502 4.685-4.183 7.781-8.868 15.31-13.051 23.090-1.506 2.761-3.43 3.764-6.526 3.764-8.534-0.168-17.151-0.251-25.683 0-4.099 0.168-5.271-1.339-5.187-5.27 0.168-16.649 0.084-33.297 0.084-49.945-0.084-1.422 0.168-2.845 0.334-5.103zM271.644 180.246c5.522-9.621 10.792-18.991 16.23-28.277 0.502-0.837 1.841-1.506 2.761-1.506 10.959-0.084 21.919-0.084 33.296-0.084 0 19.911 0 39.404 0 60.068-17.82-10.29-34.887-20.162-52.288-30.202zM317.909 221.323c-17.485 10.123-33.548 19.577-49.778 28.779-1.004 0.585-3.681 0-4.183-0.837-4.936-8.115-9.621-16.314-14.222-24.679-0.753-1.422-1.506-3.765-0.837-4.936 5.27-9.538 10.876-18.824 16.564-28.612 17.401 10.039 34.468 19.827 52.455 30.285zM342.755 221.323c18.154-10.457 35.221-20.246 52.622-30.285 5.103 8.784 9.621 17.151 14.808 25.098 2.677 4.099 1.841 7.279-0.334 10.876-4.267 7.028-8.7 13.971-12.466 21.25-1.841 3.513-3.598 2.845-6.024 1.339-4.099-2.51-8.283-5.019-12.466-7.446-11.712-6.693-23.341-13.47-36.141-20.832zM336.899 150.379c11.211 0 22.17-0.084 33.13 0.084 1.087 0 2.51 1.339 3.179 2.342 4.434 7.279 8.45 14.808 13.051 22.002 2.677 4.183 1.757 6.358-2.342 8.617-8.199 4.434-16.23 9.202-24.345 13.804-7.362 4.183-14.64 8.45-22.672 13.051 0-20.413 0-39.906 0-59.901zM203.629 271.351c-0.921-2.761-1.924-4.267-1.924-5.856-0.083-29.281-0.083-58.562 0-87.927 0-1.506 1.171-3.012 1.84-4.517 1.255 1.004 2.928 1.673 3.681 2.928 8.534 14.389 16.983 28.863 25.266 43.42 0.585 1.004 0.334 2.928-0.251 3.932-8.45 14.808-17.066 29.532-25.6 44.34-0.502 0.92-1.339 1.673-3.012 3.681zM253.741 305.067c6.777 0 13.636 0.502 20.33-0.168 6.358-0.669 9.37 2.259 12.214 7.446 6.944 12.883 14.473 25.433 21.668 38.149 0.753 1.338 0.837 3.012 1.171 4.601-1.757-0.168-3.764 0.168-5.187-0.586-7.027-3.848-13.971-8.031-20.915-12.047-18.489-10.792-37.061-21.5-55.55-32.376-1.004-0.586-1.506-2.008-2.259-3.012 1.255-0.67 2.51-1.84 3.764-1.84 8.282-0.251 16.481-0.168 24.763-0.168zM406.923 305.067c8.283 0 16.481-0.084 24.764 0.083 1.255 0 2.426 1.004 3.681 1.506-0.753 1.255-1.171 2.928-2.259 3.598-9.704 5.856-19.409 11.545-29.197 17.151-15.477 9.035-30.954 17.987-46.515 26.855-1.422 0.753-3.262 0.753-4.853 1.088 0.084-1.757-0.334-3.764 0.418-5.187 8.115-14.473 16.397-28.863 24.764-43.168 0.67-1.171 2.844-1.924 4.267-1.924 8.366-0.084 16.649 0 24.93 0zM458.959 221.239c0 14.892 0.084 29.783-0.084 44.675 0 1.255-1.171 2.593-1.841 3.848-1.004-0.585-2.426-1.004-2.928-1.924-8.366-14.306-16.481-28.779-24.847-43.085-1.506-2.51-1.422-4.602 0.084-7.111 8.199-13.971 16.23-28.11 24.429-42.164 0.67-1.171 2.342-1.673 3.514-2.51 0.586 1.339 1.589 2.761 1.589 4.099 0.084 14.724 0.084 29.449 0.084 44.173zM253.825 137.328c-7.947 0-15.895 0.084-23.76-0.084-1.589 0-3.179-1.171-4.852-1.757 1.088-1.171 1.924-2.761 3.179-3.514 14.975-8.868 30.034-17.652 45.093-26.353 10.457-6.024 20.998-12.047 31.623-17.904 1.004-0.586 2.594-0.084 3.849-0.084-0.084 1.171 0.334 2.51-0.168 3.346-8.199 14.222-16.481 28.361-24.596 42.666-1.757 3.012-3.849 3.764-7.027 3.681-7.781-0.084-15.561 0-23.341 0zM407.007 137.328c-8.115 0-16.147-0.084-24.262 0.084-2.844 0.084-4.517-0.67-6.024-3.514-3.764-7.279-8.199-14.222-12.382-21.334-3.849-6.526-7.697-13.051-11.294-19.744-0.837-1.506-0.67-3.514-0.921-5.271 1.757 0.251 3.43 0.586 5.187 0.837 0.168 0 0.251 0.168 0.418 0.251 25.098 14.473 50.279 28.947 75.378 43.503 1.087 0.67 1.589 2.342 2.426 3.598-1.255 0.502-2.426 1.422-3.681 1.506-8.366 0.168-16.649 0.084-24.847 0.084zM330.039 47.477c10.457-0.084 18.74 8.115 18.824 18.656 0.084 9.286-8.45 17.904-17.904 18.154-10.039 0.251-19.075-8.283-19.075-17.904-0.084-10.207 8.283-18.74 18.154-18.907zM213.919 299.211c1.088 8.952-8.785 18.823-18.405 18.321-10.29-0.502-18.071-8.199-17.987-18.824 0.083-10.29 8.115-17.736 18.74-18.070 8.115-0.334 18.991 8.952 17.653 18.572zM464.899 280.721c8.952-1.087 18.907 8.45 18.322 18.823-0.586 10.039-8.45 17.987-18.405 17.904-10.457-0.083-17.904-8.282-18.070-19.158-0.168-9.621 10.123-18.489 18.154-17.569zM330.457 394.918c-10.541 0-18.656-8.115-18.656-18.572 0.084-9.119 8.617-17.736 17.569-17.82 10.541-0.083 19.493 8.283 19.409 18.071 0 10.29-8.115 18.322-18.322 18.322zM213.919 143.351c1.088 9.621-8.785 18.824-17.401 18.572-11.043-0.334-18.572-7.529-19.075-18.070-0.418-8.534 7.279-18.489 18.405-18.489 10.29-0.084 18.823 8.868 18.071 17.987zM465.151 161.757c-9.538 0.334-17.904-7.362-18.322-16.815-0.418-11.043 6.86-19.158 17.569-19.66 9.872-0.418 18.405 7.529 18.824 17.569 0.334 10.792-6.944 18.489-18.070 18.907zM296.24 305.15c9.286 0 17.485-0.083 25.683 0.168 0.837 0 2.175 1.924 2.259 2.928 0.168 12.13 0.084 24.262 0 36.392 0 0.837-1.004 2.426-1.589 2.426-1.087 0-2.51-0.669-3.012-1.506-7.613-13.051-15.059-26.186-23.341-40.408zM363.42 305.317c-0.084 1.004 0 1.589-0.168 1.924-7.279 12.716-14.557 25.433-22.002 37.982-0.502 0.921-2.008 1.255-3.012 1.84-0.586-1.171-1.589-2.342-1.589-3.43-0.168-9.538-0.084-19.075-0.084-28.612 0-3.179 0-6.358 0-9.704 9.37 0 17.904 0 26.855 0zM296.91 137.077c0.418-1.255 0.586-1.924 0.837-2.426 7.111-12.214 14.222-24.429 21.417-36.56 0.67-1.171 2.091-1.924 3.179-2.844 0.586 1.339 1.757 2.594 1.757 3.932 0.168 7.279 0.084 14.557 0.084 21.836 0 5.271 0 10.541 0 16.063-9.286 0-17.987 0-27.273 0zM337.067 137.077c-0.168-1.171-0.418-2.175-0.418-3.096 0-11.629-0.084-23.341 0-34.97 0-1.255 0.921-2.51 1.422-3.681 1.171 0.837 2.761 1.422 3.43 2.594 5.856 9.788 11.462 19.744 17.234 29.615 1.757 3.012 3.43 6.024 5.438 9.538-9.704 0-18.322 0-27.106 0zM420.058 233.956c5.103 8.617 9.704 16.398 14.222 24.178 3.096 5.27 6.107 10.541 9.036 15.895 0.502 0.921 0.084 2.259 0.168 3.43-1.087 0-2.51 0.418-3.346 0-10.541-5.94-20.998-11.88-31.373-18.070-0.921-0.502-1.757-2.845-1.339-3.598 3.764-7.028 7.947-13.887 12.632-21.835zM240.69 233.872c4.518 7.697 8.701 14.724 12.549 21.919 0.418 0.753-0.837 3.347-1.924 3.932-10.039 6.024-20.246 11.796-30.452 17.485-0.921 0.502-2.175 0.251-3.346 0.334 0-1.255-0.334-2.761 0.167-3.764 2.091-4.1 4.518-8.115 6.86-12.13 5.187-9.036 10.458-17.987 16.147-27.775zM240.774 208.69c-1.004-1.506-1.506-2.342-2.008-3.096-6.86-11.88-13.72-23.76-20.496-35.723-0.753-1.339-0.669-3.012-1.004-4.601 1.506 0.168 3.179-0.084 4.351 0.586 10.123 5.689 20.162 11.462 30.034 17.485 0.921 0.586 1.673 3.179 1.171 4.099-3.597 6.944-7.613 13.721-12.047 21.25zM406.17 184.847c8.115-4.769 15.728-9.286 23.341-13.721 3.179-1.841 6.358-3.849 9.704-5.354 1.171-0.586 2.844-0.084 4.351-0.084-0.168 1.339-0.084 2.844-0.67 3.932-1.255 2.594-2.928 4.936-4.434 7.446-5.94 10.29-11.88 20.497-18.405 31.623-4.853-8.283-9.286-15.979-13.887-23.843zM399.979 268.674c11.294 6.526 21.752 12.466 32.125 18.572 1.339 0.753 2.259 2.343 3.346 3.598-1.673 0.585-3.346 1.589-5.019 1.673-13.051 0.167-26.102 0.084-39.236 0.084-1.339 0-2.677-0.251-4.769-0.502 4.685-8.115 8.952-15.561 13.553-23.425zM274.489 292.518c-16.649 0-31.791 0-46.934-0.084-0.837 0-1.589-1.171-2.426-1.757 0.669-0.753 1.171-1.841 2.008-2.259 7.864-4.685 15.812-9.286 23.76-13.887 3.262-1.924 6.526-3.764 10.039-5.689 4.517 7.781 8.7 15.142 13.553 23.676zM260.853 173.971c-11.043-6.358-21.751-12.382-32.376-18.656-1.339-0.753-2.091-2.51-3.095-3.764 1.422-0.418 2.845-1.171 4.267-1.255 13.386-0.084 26.771-0.084 40.157 0 1.171 0 2.342 0.251 4.351 0.502-4.601 8.115-8.868 15.561-13.302 23.174zM399.896 173.887c-4.517-7.864-8.868-15.31-13.302-22.923 16.649 0 32.711 0 48.774 0 0.251 0.586 0.418 1.171 0.67 1.757-11.378 7.613-23.592 13.971-36.141 21.166z" />
<glyph unicode="&#xe62e;" glyph-name="big-check" data-tags="big-check" horiz-adv-x="663" d="M236.591-22.379l-233.83 233.83 58.060 58.060 175.77-175.77 365.176 365.176 58.060-58.060z" />
<glyph unicode="&#xe647;" glyph-name="hylo-script" data-tags="hylo-script" d="M243.778 185.733c-10-8.045-19.689-16.534-30.133-24-8.978-6.445-18.622-11.689-29.956-13.822-14.622-2.711-29.022 4.356-30.178 20.4-0.089 1.067-0.534 2.134-0.934 3.555-7.333-5.555-14.222-11.2-21.511-16.222-9.111-6.267-19.334-9.156-30.578-8.489-10.044 0.622-17.067 8.134-17.822 18.578-1.156 16.489 3.334 32.089 7.334 47.644 5.111 19.689 11.111 39.111 16.666 58.622 0.4 1.466 0.666 2.978 0.978 4.489-0.578 0.4-1.156 0.8-1.734 1.2-9.289-8.8-19.378-16.933-27.689-26.622-12.089-14.089-22.755-29.466-34.4-44-4.533-5.689-5.778-12.178-5.911-18.844-0.222-12.134 0.4-24.267 0.444-36.4 0-1.2-1.245-2.978-2.355-3.511-9.911-4.755-20.178-5.644-29.689 0.311-2.978 1.866-5.378 6.889-5.556 10.622-1.067 21.289 0.711 42.445 4.045 63.6 6.222 39.689 15.778 78.489 29.555 116.222 8.267 22.666 17.956 44.711 31.555 64.755 9.6 14.134 20.222 27.422 37.111 33.422 17.2 6.089 30.934-1.511 31.778-21.644 1.244-29.867-9.422-55.956-23.822-81.022-15.689-27.245-35.644-50.933-59.066-71.911-3.867-3.466-4.311-10.8-6.311-16.356 0.533-0.222 1.066-0.445 1.645-0.667 5.066 6.089 10.044 12.266 15.245 18.266 12.622 14.667 26.089 28.489 43.111 38 6.178 3.466 13.289 6.267 20.222 7.111 10.489 1.289 19.733-6.4 19.822-19.778 0.044-7.867-2.622-15.911-4.845-23.644-6.489-22.889-13.644-45.6-20-68.534-2.489-9.022-3.555-18.489-5.6-29.466 5.6 4.356 10.445 7.422 14.4 11.334 9.2 9.067 18.666 18.044 26.622 28.178 3.822 4.844 4.889 12.134 6.489 18.489 5.6 22 10.934 44.089 16.222 66.178 1.022 4.266 1.6 8.755 1.778 13.155 0.133 3.422 1.289 4.933 4.667 4.578 4.934-0.578 10.267-0.266 14.756-2.044 14.178-5.689 17.956-14.534 14-30.445-6.756-26.845-13.778-53.644-20.222-80.578-1.956-8.178-2.4-16.666-3.555-25.022 0.756-0.489 1.511-0.978 2.267-1.466 7.778 6.178 16.445 11.555 23.111 18.755 13.289 14.356 26.178 29.245 37.822 44.934 4.534 6.133 6.178 14.889 7.6 22.756 2.711 14.933 4.4 30.044 6.4 45.111 0.267 2-0.222 4.089-0.4 7.511 3.644 0.178 7.6 0.622 11.511 0.489 15.866-0.534 26.844-14.311 23.466-29.733-4.178-19.334-8.666-38.578-12.978-57.867-0.222-1.022-0.045-2.089-0.045-4.445 7.911 7.555 15.245 14.222 22.089 21.334 1.689 1.733 2.134 5.022 2.445 7.689 3.911 30.4 12.178 59.778 21.778 88.756 8.489 25.689 18.622 50.8 34.578 72.978 9.2 12.844 19.689 24.222 35.911 28.711 15.2 4.222 24.666-5.245 28.356-16.489 4.489-13.733 2.045-27.156-1.866-40.445-8.8-29.955-24.755-56.222-43.111-81.067-10.622-14.356-22.666-27.689-33.511-41.955-2.445-3.2-3.111-8.222-3.422-12.534-1.111-15.689-2.134-31.378-2.267-47.066-0.089-8.666 1.733-17.334 2.711-26.044 0.666-0.356 1.289-0.711 1.955-1.111 10.844 10.978 22 21.689 32.267 33.2 2.4 2.666 1.911 8.134 2.267 12.356 2.578 28.8 13.422 53.955 34.222 74.133 16.4 15.911 36.356 23.334 59.245 19.334 10.578-1.867 17.422-9.867 21.466-19.555 5.955-14.267 6.933-29.067 6.222-44.666-0.534-12.711-5.156-23.378-9.778-34.445-4.844-11.689-9.334-23.555-17.466-33.644-11.778-14.578-25.466-26.711-44.489-29.378-21.334-2.978-37.156 3.156-46 30.445-0.134 0.445-0.267 0.933-0.311 1.111-8.311-7.245-16.489-14.666-25.022-21.6-7.334-5.955-16.089-9.466-25.422-10.134-10.356-0.755-19.911 3.466-24.711 16.889-3.466 9.822-5.022 20.4-6.666 30.8-0.889 5.422-0.134 11.067-0.134 17.689-10.889-9.956-21.466-18.622-30.711-28.578-3.689-3.955-4.666-10.622-6.4-16.178-14.089-45.067-29.822-89.466-52.978-130.8-9.244-16.489-20-31.955-34.534-44.267-10.4-8.844-22.445-14.089-36.445-11.156-14.4 3.022-21.911 12.445-23.689 28.489-2.755 24.489 6.667 45.067 21.644 63.466 27.111 33.245 58.934 61.911 88.889 92.4 4.667 4.755 5.822 12.889 8.622 19.511-0.356-0.045-0.711 0-1.066 0.089zM472.666 298.845c-3.644-2.222-7.067-3.778-9.866-6.134-14.534-12-26.666-25.822-30.889-44.889-3.334-14.934-7.111-29.822-9.511-44.933-1.733-11.022-0.8-22.267 3.245-32.933 12.267 2.8 23.156 8.267 30.4 17.956 8.311 11.156 14.755 23.689 21.956 35.644 0.356 0.578 0.356 1.422 0.4 2.178 0.755 15.644 1.778 31.289 2.045 46.933 0.134 9.466-2.889 18.222-7.778 26.178zM154.178 8.445c39.2 31.067 53.511 75.2 70.222 117.955-9.511-9.111-18.356-18.711-27.022-28.534-12.711-14.4-24.934-29.289-32.978-46.889-5.822-12.844-12.356-25.778-10.222-42.534zM363.822 303.155c17.956 21.422 43.911 88 41.689 106.8-18.222-23.066-35.245-74.578-41.689-106.8zM59.422 297.6c23.822 33.466 39.511 70.222 45.6 110.978-22.222-34.133-32.934-72.933-45.6-110.978z" />
<glyph unicode="&#xe900;" glyph-name="Camera" data-tags="Camera" d="M378.56 362.666l-47.894 64h-155.094l-42.666-64h-132.906v-245.333c0-53.019 42.98-96 96-96h320c53.019 0 96 42.981 96 96v245.334h-133.44zM490.666 117.334c0-41.238-33.43-74.666-74.666-74.666h-320c-41.237 0-74.666 33.43-74.666 74.666v224h122.986l42.666 64h133.014l47.894-64h122.774v-224zM0 405.334h85.334v-21.334h-85.334v21.334zM256 298.667c-58.911 0-106.666-47.757-106.666-106.667s47.757-106.666 106.666-106.666c58.911 0 106.666 47.757 106.666 106.666s-47.757 106.666-106.666 106.666zM256 106.666c-47.129 0-85.334 38.205-85.334 85.334s38.205 85.334 85.334 85.334c47.129 0 85.334-38.205 85.334-85.334s-38.205-85.334-85.334-85.334zM458.666 288c0-11.782-9.551-21.334-21.334-21.334s-21.334 9.551-21.334 21.334c0 11.782 9.551 21.334 21.334 21.334s21.334-9.551 21.334-21.334z" />
<glyph unicode="&#xe901;" glyph-name="Comment-Alt" data-tags="Comment - Alt" d="M10.666 480v-512l163.84 149.333h209.493c64.802 0 117.334 52.532 117.334 117.334v245.334h-490.666zM480 234.667c0-53.020-42.981-96-96-96h-217.387l-134.613-126.080v446.080h448v-224zM160 298.667c0-17.673-14.327-32-32-32s-32 14.327-32 32c0 17.673 14.327 32 32 32s32-14.327 32-32zM288 298.667c0-17.673-14.327-32-32-32s-32 14.327-32 32c0 17.673 14.327 32 32 32s32-14.327 32-32zM416 298.667c0-17.673-14.327-32-32-32s-32 14.327-32 32c0 17.673 14.327 32 32 32s32-14.327 32-32z" />
<glyph unicode="&#xe902;" glyph-name="Message-Smile" data-tags="Message - Smile" d="M256 480c-141.261-0.164-255.712-114.716-255.712-256 0-45.277 11.754-87.809 32.377-124.711l-32.666-131.29 129.387 33.493c36.38-21.064 80.037-33.493 126.597-33.493 141.385 0 256 114.615 256 256 0 141.379-114.606 255.99-255.983 256zM256-10.666c-0.001 0-0.003 0-0.005 0-44.112 0-85.38 12.171-120.632 33.338l-2.778 1.755-102.4-26.24 24.427 105.387-2.24 3.84c-19.5 33.479-31.010 73.688-31.010 116.587 0 129.603 105.064 234.667 234.667 234.667s234.667-105.064 234.667-234.667c0-129.603-105.064-234.667-234.667-234.667-0.010 0-0.021 0-0.031 0zM256 138.666c-53.019 0-96 42.981-96 96h-21.334c0-64.801 52.532-117.334 117.334-117.334s117.334 52.532 117.334 117.334h-21.334c0-53.019-42.981-96-96-96z" />
<glyph unicode="&#xe903;" glyph-name="Comment" data-tags="Comment" d="M10.666 480v-512l163.84 149.333h209.493c65.006 0.962 117.334 53.884 117.334 119.028 0 0.079 0 0.159 0 0.238v243.401h-490.666zM480 236.587c0-0.068 0-0.148 0-0.228 0-53.362-42.778-96.733-95.911-97.69l-217.476-0.002-134.613-124.267v444.267h448v-222.080z" />
<glyph unicode="&#xe904;" glyph-name="Keypad" data-tags="Keypad" d="M85.334 458.666c-35.346 0-64-28.654-64-64s28.654-64 64-64c35.346 0 64 28.654 64 64s-28.654 64-64 64zM85.334 352c-23.564 0-42.666 19.102-42.666 42.666s19.102 42.666 42.666 42.666c23.564 0 42.666-19.102 42.666-42.666s-19.102-42.666-42.666-42.666zM85.334 288c-35.346 0-64-28.654-64-64s28.654-64 64-64c35.346 0 64 28.654 64 64s-28.654 64-64 64zM85.334 181.334c-23.564 0-42.666 19.103-42.666 42.666s19.102 42.666 42.666 42.666c23.564 0 42.666-19.102 42.666-42.666s-19.102-42.666-42.666-42.666zM256 458.666c-35.346 0-64-28.654-64-64s28.654-64 64-64c35.346 0 64 28.654 64 64s-28.654 64-64 64zM256 352c-23.564 0-42.666 19.102-42.666 42.666s19.102 42.666 42.666 42.666c23.564 0 42.666-19.102 42.666-42.666s-19.103-42.666-42.666-42.666zM256 288c-35.346 0-64-28.654-64-64s28.654-64 64-64c35.346 0 64 28.654 64 64s-28.654 64-64 64zM256 181.334c-23.564 0-42.666 19.103-42.666 42.666s19.102 42.666 42.666 42.666c23.564 0 42.666-19.102 42.666-42.666s-19.103-42.666-42.666-42.666zM256 117.334c-35.346 0-64-28.654-64-64s28.654-64 64-64c35.346 0 64 28.654 64 64s-28.654 64-64 64zM256 10.666c-23.564 0-42.666 19.103-42.666 42.666s19.102 42.666 42.666 42.666c23.564 0 42.666-19.103 42.666-42.666s-19.103-42.666-42.666-42.666zM426.666 330.667c35.346 0 64 28.654 64 64s-28.654 64-64 64c-35.346 0-64-28.654-64-64s28.654-64 64-64zM426.666 437.334c23.564 0 42.666-19.103 42.666-42.666s-19.103-42.667-42.666-42.667c-23.564 0-42.666 19.103-42.666 42.667s19.103 42.666 42.666 42.666zM426.666 288c-35.346 0-64-28.654-64-64s28.654-64 64-64c35.346 0 64 28.654 64 64s-28.654 64-64 64zM426.666 181.334c-23.564 0-42.666 19.103-42.666 42.666s19.103 42.666 42.666 42.666c23.564 0 42.666-19.102 42.666-42.666s-19.103-42.666-42.666-42.666zM85.334 117.334c-35.346 0-64-28.654-64-64s28.654-64 64-64c35.346 0 64 28.654 64 64s-28.654 64-64 64zM85.334 10.666c-23.564 0-42.666 19.103-42.666 42.666s19.102 42.666 42.666 42.666c23.564 0 42.666-19.103 42.666-42.666s-19.102-42.666-42.666-42.666zM426.666 117.334c-35.346 0-64-28.654-64-64s28.654-64 64-64c35.346 0 64 28.654 64 64s-28.654 64-64 64zM426.666 10.666c-23.564 0-42.666 19.103-42.666 42.666s19.103 42.666 42.666 42.666c23.564 0 42.666-19.103 42.666-42.666s-19.103-42.666-42.666-42.666z" />
<glyph unicode="&#xe905;" glyph-name="Loudspeaker" data-tags="Loudspeaker" d="M512 458.666l-418.026-170.666h-29.974c-35.346 0-64-28.654-64-64s28.654-64 64-64h29.974l49.066-19.413-11.52-29.974c-2.239-5.668-3.538-12.233-3.538-19.101 0-22.596 14.052-41.911 33.896-49.68l99.989-38.312c5.642-2.217 12.175-3.502 19.009-3.502 22.583 0 41.888 14.036 49.666 33.86l10.792 28.416 170.667-72.96v469.334zM21.334 224c0 23.564 19.102 42.666 42.666 42.666h21.334v-85.334h-21.334c-23.564 0-42.666 19.103-42.666 42.666zM310.827 41.92c-4.728-12.14-16.325-20.587-29.896-20.587-4.132 0-8.082 0.784-11.708 2.209l-99.409 38.111c-12.121 4.738-20.552 16.325-20.552 29.882 0 4.098 0.77 8.015 2.173 11.616l11.445 29.542 158.72-62.613zM490.666 20.587l-384 157.333v92.16l384 156.587v-405.973z" />
<glyph unicode="&#xe906;" glyph-name="JunkBox" data-tags="Junk Box" d="M512 437.334h-512v-106.666h32.64l15.36-230.4c3.456-50.193 45.019-89.6 95.786-89.6 0.075 0 0.15 0 0.225 0h223.989c0.063 0 0.139 0 0.214 0 50.767 0 92.331 39.408 95.77 89.302l15.377 230.699h32.64v106.666zM442.666 101.654c-2.705-39.023-35.025-69.654-74.498-69.654-0.059 0-0.118 0-0.178 0h-223.991c-0.050 0-0.109 0-0.168 0-39.474 0-71.793 30.63-74.485 69.42l-15.267 229.247h403.84zM490.666 352h-469.334v64h469.334v-64zM199.573 109.76l56.427 56.534 56.426-56.534 15.147 15.147-56.534 56.426 56.534 56.427-15.147 15.147-56.427-56.533-56.427 56.534-15.147-15.147 56.534-56.426-56.534-56.426 15.147-15.147z" />
<glyph unicode="&#xe907;" glyph-name="Box-Out" data-tags="Box - Out" d="M245.333 443.627v-219.627h21.333v219.626l80.534-77.866 15.466 15.147-106.666 99.094-106.666-99.094 15.68-15.147 80.32 77.866zM421.76 309.333h-69.76v-21.333h58.24l71.147-106.666h-158.72l-8.853-31.147c-7.455-25.288-30.462-43.43-57.707-43.43s-50.251 18.142-57.599 43.005l-9.174 31.572h-158.72l71.147 106.666h58.24v21.334h-69.76l-90.24-138.666 20.267-122.454c7.845-45.798 47.249-80.214 94.693-80.214 0.010 0 0.019 0 0.028 0h282.025c0.008 0 0.017 0 0.027 0 47.444 0 86.849 34.416 94.612 79.644l20.348 123.023zM397.014-10.666h-282.026c-36.883 0.026-67.507 26.791-73.537 61.957l-18.196 108.709h150.080l4.48-15.68c10.065-34.33 41.274-58.975 78.24-58.975s68.175 24.644 78.095 58.399l4.519 16.255h150.080l-18.026-108.267c-6.096-35.626-36.748-62.4-73.652-62.4-0.019 0-0.038 0-0.058 0z" />
<glyph unicode="&#xe908;" glyph-name="Mail" data-tags="Mail" d="M0 416v-288c0-53.019 42.98-96 96-96h320c53.019 0 96 42.981 96 96v288h-512zM490.666 128c0-41.238-33.43-74.666-74.666-74.666h-320c-41.237 0-74.666 33.43-74.666 74.666v266.666h469.334v-266.666zM453.12 334.187l-14.293 15.786-182.827-164.906-181.76 164.693-14.294-15.786 196.053-177.707 197.12 177.92z" />
<glyph unicode="&#xe909;" glyph-name="AddContacts" data-tags="Add Contacts" d="M501.334 330.667h-74.666v74.666h-21.334v-74.666h-74.666v-21.334h74.666v-74.666h21.334v74.666h74.666v21.334zM126.186 292.587c8.746-48.106 40.746-79.254 81.494-79.254s72.214 30.293 81.493 79.147c1.493 7.466 8.64 45.226 9.067 54.4 0.053 1.12 0.084 2.433 0.084 3.752 0 22.688-9.023 43.268-23.676 58.348-16.999 17.487-40.773 28.349-67.084 28.349-26.571 0-50.555-11.078-67.584-28.868-14.119-14.769-22.79-34.785-22.79-56.825 0-1.711 0.052-3.409 0.155-5.094-0.011-9.156 7.989-49.476 8.842-53.955zM155.52 393.707c13.145 13.572 31.535 21.995 51.893 21.995s38.748-8.424 51.875-21.976c11.18-11.32 18.074-26.859 18.074-44.007 0-0.661-0.010-1.319-0.031-1.974 0.002-5.771-5.438-34.571-8.745-51.211-6.080-29.866-24.96-61.867-60.906-61.867s-55.36 33.28-60.587 61.867c-3.094 16.64-8.427 45.44-8.427 51.413-0.066 1.067-0.104 2.315-0.104 3.571 0 16.416 6.461 31.324 16.979 42.318zM338.026 162.986l-130.346 17.493-129.6-17.173c-32-6.293-66.88-28.587-71.36-64l-6.72-88.64h416l-5.12 84.373c-2.134 34.88-29.226 60.267-72.853 67.947zM22.294 32l5.654 64.534c3.093 24.853 30.294 41.173 53.334 45.76l126.4 16.64 127.040-16.96c15.786-2.774 52.693-13.12 54.933-48.214l3.733-61.76h-371.094z" />
<glyph unicode="&#xe90a;" glyph-name="Users" data-tags="Users" horiz-adv-x="598" d="M123.734 292.587c8.64-48.106 40.64-79.254 81.493-79.254s72.213 30.293 81.494 79.147c1.493 7.466 8.64 45.226 9.067 54.4 0.053 1.12 0.084 2.433 0.084 3.752 0 22.688-9.023 43.268-23.676 58.348-16.994 17.455-40.748 28.296-67.032 28.296-26.597 0-50.602-11.1-67.635-28.92-14.241-14.795-22.992-34.894-22.992-57.037 0-1.636 0.048-3.262 0.142-4.875 0.523-9.058 8.203-49.377 9.056-53.857zM153.066 393.707c13.145 13.572 31.535 21.995 51.893 21.995s38.748-8.424 51.875-21.976c10.945-11.278 17.681-26.656 17.681-43.607 0-0.989-0.023-1.973-0.068-2.951 0.005-5.728-5.435-34.528-8.741-51.168-5.654-29.334-24.534-61.334-60.48-61.334s-55.893 33.28-60.587 61.867c-3.2 16.746-8.32 45.546-8.746 51.52-0.050 0.924-0.078 2.006-0.078 3.095 0 16.552 6.579 31.567 17.266 42.573zM335.574 162.986l-130.346 17.493-129.6-17.173c-32-6.293-66.88-28.587-71.36-64l-4.266-88.64h413.546l-5.12 84.373c-2.24 34.88-29.334 60.267-72.853 67.947zM19.733 32l5.654 64.534c3.093 24.853 30.294 41.173 53.334 45.76l126.4 16.64 127.040-16.96c15.786-2.774 52.694-13.12 54.933-48.214l3.84-61.76h-371.2zM361.92 251.094c7.147-39.147 33.6-64 67.306-64s59.627 24.64 67.307 64c1.173 5.974 6.933 35.84 7.253 43.306v0c0.043 0.911 0.068 1.979 0.068 3.052 0 18.392-7.308 35.078-19.178 47.312-14.101 14.562-33.852 23.611-55.717 23.611s-41.617-9.049-55.714-23.606c-11.569-12.007-18.684-28.336-18.684-46.326 0-1.309 0.038-2.61 0.112-3.9 0.418-7.822 6.072-37.688 7.245-43.448zM388.8 329.494c10.221 10.486 24.485 16.989 40.267 16.989s30.045-6.504 40.255-16.978c8.219-8.438 13.281-19.964 13.281-32.671 0-0.706-0.015-1.408-0.046-2.106 0.003-4.167-4.156-26.034-6.93-40.114-2.134-10.667-11.84-47.040-46.4-47.040-27.84 0-42.666 24.214-46.293 47.040-2.56 13.12-6.613 35.733-6.933 40.32-0.058 0.86-0.091 1.865-0.091 2.877 0 12.312 4.873 23.486 12.797 31.697zM469.334 10.666h128l-1.173 80.214c-2.24 28.906-24.534 50.026-60.374 56.426l-105.28 12.694-2.56-21.334 104.747-12.587c12.053-2.134 40.213-10.026 42.667-36.694l2.56-57.387h-108.587v-21.334z" />
<glyph unicode="&#xe90b;" glyph-name="Chevron-Up" data-tags="Chevron - Up" d="M256 309.333l-170.667-155.626 15.040-15.040 155.626 140.48 155.626-140.48 15.040 15.040-170.667 155.626z" />
<glyph unicode="&#xe90c;" glyph-name="Chevon-Left" data-tags="Chevon - Left" d="M326.293 394.666l15.040-15.040-140.48-155.626 140.48-155.626-15.040-15.040-155.626 170.667 155.626 170.667z" />
<glyph unicode="&#xe90d;" glyph-name="Chevron-Down" data-tags="Chevron - Down" d="M85.334 283.626l15.040 15.040 155.626-140.48 155.626 140.48 15.040-15.040-170.667-155.627-170.667 155.626z" />
<glyph unicode="&#xe90e;" glyph-name="Chevron-Right" data-tags="Chevron - Right" d="M185.707 394.666l-15.040-15.040 140.48-155.626-140.48-155.626 15.040-15.040 155.626 170.667-155.626 170.667z" />
<glyph unicode="&#xe90f;" glyph-name="List" data-tags="List" d="M53.334 384h405.334v-21.334h-405.334v21.334zM53.334 234.667h405.334v-21.333h-405.334v21.334zM53.334 85.334h405.334v-21.334h-405.334v21.334z" />
<glyph unicode="&#xe910;" glyph-name="Calendar-Add" data-tags="Calendar - Add" d="M0 480v-394.666c0-64.801 52.532-117.334 117.334-117.334h277.334c64.802 0 117.333 52.532 117.333 117.334v394.666h-512zM490.666 85.334c0-53.019-42.981-96-96-96h-277.334c-53.019 0-96 42.981-96 96v373.334h469.334v-373.334zM106.666 394.666h298.666v-21.334h-298.666v21.334zM266.666 309.333h-21.334v-106.666h-106.666v-21.334h106.666v-106.666h21.334v106.666h106.666v21.334h-106.666v106.666z" />
<glyph unicode="&#xe911;" glyph-name="Calendar" data-tags="Calendar" d="M0 480v-394.666c0-64.801 52.532-117.334 117.334-117.334h277.334c64.802 0 117.333 52.532 117.333 117.334v394.666h-512zM490.666 85.334c0-53.019-42.981-96-96-96h-277.334c-53.019 0-96 42.981-96 96v373.334h469.334v-373.334zM106.666 394.666h298.666v-21.334h-298.666v21.334zM205.12 231.040l50.88 28.16v-195.2h21.334v231.466l-82.454-45.76 10.24-18.666z" />
<glyph unicode="&#xe912;" glyph-name="Bell" data-tags="Bell" d="M490.666 105.173c0 0.103 0 0.226 0 0.348 0 32.293-13.13 61.521-34.343 82.634l-44.164 44.165c-17.394 17.28-28.16 41.212-28.16 67.659 0 0.063 0 0.127 0 0.191v51.83c0 70.692-57.308 128-128 128s-128-57.308-128-128v-51.84c0-0.054 0-0.118 0-0.181 0-26.447-10.766-50.38-28.155-67.654l-44.165-44.165c-21.217-21.118-34.347-50.345-34.347-82.638 0-0.123 0-0.245 0-0.367v-51.821h160v-10.666c0-41.238 33.429-74.666 74.667-74.666s74.666 33.43 74.666 74.666v10.666h160v51.84zM309.334 42.666c0-29.455-23.878-53.334-53.334-53.334s-53.334 23.878-53.334 53.334v10.666h106.666v-10.666zM469.334 74.666h-426.666v30.507c0 0.054 0 0.118 0 0.181 0 26.447 10.766 50.38 28.155 67.654l44.165 44.165c21.217 21.118 34.347 50.345 34.347 82.639 0 0.122 0 0.245-0 0.367v51.821c0 58.91 47.756 106.666 106.667 106.666s106.666-47.757 106.666-106.666v-51.84c-0-0.103-0-0.226-0-0.348 0-32.293 13.13-61.521 34.342-82.634l44.164-44.164c17.394-17.279 28.16-41.212 28.16-67.659 0-0.063 0-0.127 0-0.191v-30.497z" />
<glyph unicode="&#xe913;" glyph-name="Clock" data-tags="Clock" d="M256 480c-141.385 0-256-114.615-256-256s114.615-256 256-256c141.385 0 256 114.615 256 256s-114.615 256-256 256zM256-10.666c-129.603 0-234.667 105.064-234.667 234.667s105.064 234.667 234.667 234.667c129.603 0 234.667-105.064 234.667-234.667s-105.064-234.667-234.667-234.667zM256 224h-117.334v-21.334h138.666v202.666h-21.334v-181.333z" />
<glyph unicode="&#xe914;" glyph-name="Cloud-Download" data-tags="Cloud - Download" d="M266.666 4.267v230.4h-21.334v-230.4l-67.2 67.2-14.934-14.933 92.8-88.534 92.8 88.534-14.933 14.933zM404.267 352c-10.666 72.534-73.6 128-148.267 128-82.133 0-149.333-67.2-149.333-149.333v-10.667h-5.334c-50.133 0-91.734-36.267-100.266-85.334h-1.067v-117.334h170.667v21.334h-149.333v84.267c2.134 42.666 37.334 75.733 80 75.733h26.666v32c0 70.4 57.6 128 128 128 66.133 0 122.666-52.267 128-118.4l1.067-9.6h9.6c53.334 0 96-42.666 96-96s-42.666-96-96-96h-53.334v-21.334h53.334c65.067 0 117.334 52.267 117.334 117.334 0 61.867-48 112-107.733 117.334z" />
<glyph unicode="&#xe915;" glyph-name="Cloud-Upload" data-tags="Cloud - Upload" d="M348.8 172.8l-92.8 92.8-92.8-92.8 14.934-14.933 67.2 67.2v-235.733h21.334v235.733l67.2-67.2zM404.267 330.667c-10.666 72.534-73.6 128-148.267 128-82.133 0-149.333-67.2-149.333-149.334v-10.666h-5.334c-50.133 0-91.734-36.267-100.266-85.334h-1.067v-117.334h170.667v21.334h-149.333v84.267c2.134 42.666 37.334 75.733 80 75.733h26.666v32c0 70.4 57.6 128 128 128 66.133 0 122.666-52.267 128-118.4l1.067-9.6h9.6c53.334 0 96-42.666 96-96s-42.666-96-96-96h-53.334v-21.334h53.334c65.067 0 117.334 52.267 117.334 117.334 0 61.867-48 112-107.733 117.334z" />
<glyph unicode="&#xe916;" glyph-name="Pin-2" data-tags="Pin - 2" d="M394.666 341.333c0 0.037 0 0.080 0 0.123 0 76.583-62.083 138.666-138.667 138.666s-138.667-62.083-138.667-138.666c0-72.83 56.146-132.546 127.514-138.225l0.486-235.231h21.334v235.2c71.812 5.707 127.933 65.356 128 138.127zM256 224c-64.802 0-117.334 52.532-117.334 117.334s52.532 117.334 117.334 117.334c64.802 0 117.334-52.532 117.334-117.334s-52.532-117.334-117.334-117.334z" />
<glyph unicode="&#xe917;" glyph-name="Loupe" data-tags="Loupe" d="M512-16.96l-195.733 195.84c28.435 31.875 45.812 74.149 45.812 120.481 0 100.147-81.185 181.333-181.333 181.333s-181.333-81.185-181.333-181.333c0-100.147 81.186-181.333 181.333-181.333 46.333 0 88.607 17.377 120.66 45.969l195.555-195.997zM20.694 298.667c0 88.365 71.635 159.998 160 159.998s160-71.635 160-160c0-88.141-71.27-159.635-159.326-159.998-0.035 0-0.036 0-0.036 0-88.494 0-160.275 71.557-160.638 159.966z" />
<glyph unicode="&#xe918;" glyph-name="View" data-tags="View" d="M507.307 230.293c-4.587 6.293-112 153.707-251.307 153.707s-246.72-147.413-251.306-153.707l-4.694-6.293 4.694-6.293c4.587-6.293 112-153.707 251.306-153.707s246.72 147.413 251.307 153.707l4.693 6.293zM256 85.334c-112.853 0-206.72 110.72-229.226 138.667 22.507 27.946 116.374 138.667 229.226 138.667s206.72-110.72 229.226-138.667c-22.507-27.946-116.374-138.667-229.226-138.667zM256 309.333c-47.129 0-85.334-38.205-85.334-85.333s38.205-85.334 85.334-85.334c47.129 0 85.334 38.205 85.334 85.334s-38.205 85.334-85.334 85.334zM256 160c-35.346 0-64 28.654-64 64s28.654 64 64 64c35.346 0 64-28.654 64-64s-28.654-64-64-64z" />
<glyph unicode="&#xe919;" glyph-name="More-Alt" data-tags="More - Alt" d="M256 352c35.346 0 64 28.654 64 64s-28.654 64-64 64c-35.346 0-64-28.654-64-64s28.654-64 64-64zM256 458.666c23.564 0 42.666-19.102 42.666-42.666s-19.103-42.666-42.666-42.666c-23.564 0-42.666 19.103-42.666 42.666s19.102 42.666 42.666 42.666zM256 288c-35.346 0-64-28.654-64-64s28.654-64 64-64c35.346 0 64 28.654 64 64s-28.654 64-64 64zM256 181.334c-23.564 0-42.666 19.103-42.666 42.666s19.102 42.666 42.666 42.666c23.564 0 42.666-19.102 42.666-42.666s-19.103-42.666-42.666-42.666zM256 96c-35.346 0-64-28.654-64-64s28.654-64 64-64c35.346 0 64 28.654 64 64s-28.654 64-64 64zM256-10.666c-23.564 0-42.666 19.103-42.666 42.666s19.102 42.666 42.666 42.666c23.564 0 42.666-19.103 42.666-42.666s-19.103-42.666-42.666-42.666z" />
<glyph unicode="&#xe91a;" glyph-name="More" data-tags="More" d="M64 288c-35.346 0-64-28.654-64-64s28.654-64 64-64c35.346 0 64 28.654 64 64s-28.654 64-64 64zM64 181.334c-23.564 0-42.666 19.103-42.666 42.666s19.102 42.666 42.666 42.666c23.564 0 42.666-19.102 42.666-42.666s-19.103-42.666-42.666-42.666zM256 288c-35.346 0-64-28.654-64-64s28.654-64 64-64c35.346 0 64 28.654 64 64s-28.654 64-64 64zM256 181.334c-23.564 0-42.666 19.103-42.666 42.666s19.102 42.666 42.666 42.666c23.564 0 42.666-19.102 42.666-42.666s-19.103-42.666-42.666-42.666zM448 288c-35.346 0-64-28.654-64-64s28.654-64 64-64c35.346 0 64 28.654 64 64s-28.654 64-64 64zM448 181.334c-23.564 0-42.666 19.103-42.666 42.666s19.103 42.666 42.666 42.666c23.564 0 42.666-19.102 42.666-42.666s-19.103-42.666-42.666-42.666z" />
<glyph unicode="&#xe91b;" glyph-name="Bookmark" data-tags="Bookmark" d="M106.666 480v-512l144.107 52.587 154.56-52.587v512h-298.666zM384-1.387l-133.44 44.8-122.56-43.413v458.666h256v-460.053z" />
<glyph unicode="&#xe91c;" glyph-name="Heart" data-tags="Heart" d="M371.2 448c-0.045 0-0.098 0-0.151 0-47.415 0-89.339-23.509-114.753-59.505-26.1 35.945-68.058 59.404-115.496 59.404-77.689 0-140.681-62.92-140.8-140.582 0-66.678 35.52-133.664 105.6-199.052 42.882-38.228 90.272-73.433 140.654-104.221l9.746-4.046 5.546 1.6c54.59 34.077 101.862 69.236 146.081 107.806 70.772 64.14 104.372 127.394 104.372 197.9-0.122 77.692-63.1 140.633-140.794 140.694zM391.894 123.947c-40.293-35.13-84.661-68.303-131.428-98.040-55.649 28.918-100.023 62.096-141.212 98.774-64.639 60.387-97.919 122.147-97.919 182.627 0 0.038 0 0.084 0 0.13 0 65.92 53.44 119.36 119.36 119.36 45.733 0 85.458-25.719 105.5-63.483l9.806-18.673 9.493 18.026c20.356 38.411 60.081 64.13 105.814 64.13 65.921 0 119.36-53.44 119.36-119.36 0-0.046 0-0.091 0-0.137 0-63.993-31.36-122.339-98.666-183.353z" />
<glyph unicode="&#xe91d;" glyph-name="Like" data-tags="Like" d="M461.014 237.654c-18.189 17.94-43.185 29.019-70.769 29.019-0.396 0-0.791-0.002-1.185-0.007l-90.394 0c-1.19-0.219-2.558-0.345-3.956-0.345-6.945 0-13.165 3.101-17.351 7.994-1.322 2.923-2.078 6.3-2.078 9.853 0 4.908 1.441 9.48 3.923 13.314l17.755 31.904c10.635 16.939 16.943 37.53 16.943 59.595 0 10.522-1.435 20.708-4.118 30.375-8.538 26.702-28.009 48.609-53.169 60.385l-11.282 0.259-144.534-213.334h-79.466l27.413-178.56c8.704-67.519 65.436-119.274 134.422-120.106l192.619-0.001c25.92 0 110.4 70.613 114.88 170.667 1.6 43.2-8.32 76.693-29.654 98.987zM469.334 138.666c-3.84-90.24-79.36-147.946-93.334-149.334h-192.746c-58.391 0.892-106.254 44.811-113.329 101.406l-25.551 154.595h67.734l141.866 210.133c16.901-9.219 29.714-24.142 35.997-42.13 2.151-7.68 3.293-15.882 3.293-24.352 0-17.96-5.137-34.719-14.022-48.889l-17.908-32.149c-4.051-6.576-6.451-14.543-6.451-23.071 0-7.853 2.035-15.231 5.607-21.635 7.697-10.872 20.452-18.035 34.882-18.035 1.16 0 2.31 0.047 3.446 0.137l90.517-0.010c0.344 0.006 0.752 0.008 1.159 0.008 21.496 0 40.996-8.547 55.287-22.427 17.048-18.008 24.941-46.168 23.554-84.248z" />
<glyph unicode="&#xe91e;" glyph-name="Star" data-tags="Star" d="M512 277.333h-194.986l-61.014 192-61.013-192h-194.987l157.333-108.693-61.334-189.974 160 117.334 160-117.334-61.334 189.974zM373.334 37.44l-117.334 85.334-117.334-85.334 43.626 139.84-113.92 78.72h142.080l45.547 146.347 45.547-146.347h142.080l-113.813-78.614z" />
<glyph unicode="&#xe91f;" glyph-name="Trash" data-tags="Trash" d="M469.334 416h-120.32l-9.173 27.52c-7.271 21.363-27.15 36.462-50.558 36.48h-66.562c-23.41-0.019-43.289-15.117-50.448-36.105l-9.285-27.895h-120.32v-21.334h32l17.28-335.466c2.627-50.913 44.549-91.2 95.88-91.2 0.042 0 0.084 0 0.126 0h136.207c0.036 0 0.078 0 0.12 0 51.331 0 93.252 40.287 95.87 90.966l17.183 335.7h32v21.334zM192 436.8c4.371 12.815 16.305 21.869 30.354 21.869 0.129 0 0.257-0.001 0.386-0.002h66.434c0.14 0.002 0.307 0.004 0.473 0.004 14.049 0 25.983-9.054 30.288-21.645l6.574-21.025h-141.013zM398.293 60.267c-2.043-39.599-34.649-70.933-74.573-70.933-0.033 0-0.065 0-0.099 0h-135.781c-0.028 0-0.060 0-0.094 0-39.924 0-72.529 31.334-74.566 70.752l-16.648 334.582h318.933zM186.683 319.488l21.311 0.968 10.655-234.638-21.311-0.967-10.655 234.638zM293.337 85.839l10.655 234.638 21.312-0.967-10.655-234.638-21.312 0.967z" />
<glyph unicode="&#xe920;" glyph-name="Compose" data-tags="Compose" d="M448 256v-266.666h-384v405.334h213.333v21.334h-234.667v-448h426.667v288h-21.334zM198.186 46.4l101.013 77.226 122.987 213.333-84.693 48.534-122.987-213.333zM234.667 165.44l110.72 190.934 47.786-27.52-110.293-190.934-56.96-43.52zM462.827 406.613c4.111 7.008 6.54 15.434 6.54 24.427 0 27-21.887 48.887-48.887 48.887-18.007 0-33.739-9.735-42.221-24.229l-28.392-49.084 84.694-48.853zM378.986 414.4l17.6 30.507c4.853 8.315 13.731 13.813 23.894 13.813 15.228 0 27.572-12.344 27.572-27.572 0-5.065-1.366-9.812-3.75-13.891l-17.636-30.482z" />
<glyph unicode="&#xe921;" glyph-name="Lock" data-tags="Lock" d="M373.334 288v74.666c0 64.802-52.532 117.334-117.334 117.334s-117.334-52.532-117.334-117.334v-74.666h-74.666v-224c0-53.019 42.98-96 96-96h192c53.019 0 96 42.981 96 96v224h-74.666zM160 362.666c0 53.020 42.981 96 96 96s96-42.98 96-96v-74.666h-192v74.666zM426.666 64c0-41.238-33.43-74.666-74.666-74.666h-192c-41.237 0-74.666 33.43-74.666 74.666v202.667h341.334v-202.667zM242.026 85.334c1.613-6.321 7.256-10.921 13.974-10.921s12.361 4.599 13.952 10.821l17.195 57.486c0.509 2.137 0.8 4.589 0.8 7.111 0 17.673-14.327 32-32 32s-32-14.327-32-32c0-2.521 0.292-4.974 0.843-7.327z" />
<glyph unicode="&#xe922;" glyph-name="Pencil" data-tags="Pencil" d="M61.227 128l-61.227-160 160 61.226 248.96 249.173-98.56 98.56zM147.84 47.894l-110.507-42.56 42.666 110.507 230.4 230.72 68.16-68.16zM491.733 459.733c-12.529 12.533-29.839 20.286-48.96 20.286s-36.432-7.752-48.96-20.285l-52.48-52.693 97.707-97.707 52.694 52.694c12.469 12.518 20.179 29.785 20.179 48.853s-7.709 36.336-20.181 48.856zM476.693 376.96l-37.654-37.653-67.626 67.733 37.654 37.654c8.51 7.877 19.938 12.709 32.493 12.709 26.451 0 47.894-21.442 47.894-47.894 0-12.582-4.853-24.032-12.788-32.579z" />
<glyph unicode="&#xe923;" glyph-name="Link" data-tags="Link" d="M480 447.040c-19.896 20.385-47.645 33.027-78.346 33.027s-58.451-12.642-78.326-33.005l-110.635-112.449c-20.089-20.555-32.484-48.704-32.484-79.749 0-25.606 8.432-49.242 22.671-68.283l-0.214 0.298c3.092-3.896 6.233-7.375 9.579-10.647l15.381 15.127c-2.715 2.743-5.266 5.666-7.625 8.741l-8.801-6.288 8.64 6.507c-11.355 15.171-18.181 34.303-18.181 55.030 0 25.178 10.073 48.002 26.409 64.665l110.386 111.878c15.979 16.379 38.27 26.536 62.933 26.536s46.954-10.158 62.916-26.519c16.24-16.646 26.246-39.404 26.246-64.498s-10.007-47.851-26.247-64.499l-73.795-79.767 15.786-14.613 73.707 79.466c20.005 20.507 32.346 48.572 32.346 79.52s-12.341 59.013-32.368 79.543zM280.106 253.226c16.185-16.606 26.166-39.324 26.166-64.374s-9.982-47.767-26.185-64.393l-106.647-108.353c-15.98-16.378-38.27-26.536-62.934-26.536s-46.953 10.158-62.916 26.519c-16.233 16.63-26.236 39.369-26.236 64.445s10.003 47.815 26.237 64.445l71.022 74.648-15.36 15.040-71.254-74.667c-19.974-20.502-32.294-48.546-32.294-79.466s12.319-58.965 32.318-79.492c19.872-20.361 47.621-33.002 78.323-33.002s58.451 12.642 78.326 33.005l106.688 108.396c19.974 20.502 32.294 48.546 32.294 79.466s-12.32 58.965-32.318 79.491z" />
<glyph unicode="&#xe924;" glyph-name="twitter" data-tags="twitter, social" d="M256 476.16c-135.731 0-245.76-110.029-245.76-245.76s110.029-245.76 245.76-245.76 245.76 110.029 245.76 245.76-110.029 245.76-245.76 245.76zM355.942 274.816c0.103-2.074 0.154-4.173 0.154-6.272 0-63.949-48.691-137.702-137.728-137.702-27.315 0-52.787 7.987-74.189 21.76 3.789-0.461 7.655-0.666 11.546-0.666 22.681 0 43.546 7.731 60.135 20.736-21.171 0.384-39.066 14.387-45.235 33.587 2.944-0.563 5.99-0.87 9.088-0.87 4.429 0 8.704 0.589 12.749 1.69-22.119 4.454-38.835 24.013-38.835 47.463 0 0.205 0 0.41 0.025 0.589 6.528-3.609 14.003-5.786 21.913-6.042-12.953 8.678-21.504 23.475-21.504 40.294 0 8.883 2.381 17.203 6.554 24.345 23.859-29.312 59.546-48.589 99.763-50.585-0.819 3.533-1.255 7.219-1.255 11.034 0 26.727 21.683 48.41 48.409 48.41 13.926 0 26.496-5.863 35.328-15.283 11.034 2.15 21.401 6.169 30.745 11.725-3.635-11.29-11.289-20.787-21.299-26.778 9.805 1.178 19.123 3.763 27.801 7.629-6.477-9.702-14.72-18.227-24.166-25.063z" />
<glyph unicode="&#xe925;" glyph-name="facebook" data-tags="facebook, social" d="M256 476.16c-135.731 0-245.76-110.029-245.76-245.76s110.029-245.76 245.76-245.76 245.76 110.029 245.76 245.76-110.029 245.76-245.76 245.76zM314.189 306.329h-36.941c-4.352 0-9.216-5.76-9.216-13.415v-26.675h46.183v-38.042h-46.183v-114.202h-43.623v114.202h-39.526v38.016h39.526v22.375c0 32.103 22.272 58.189 52.839 58.189h36.941v-40.448z" />
<glyph unicode="&#xe926;" glyph-name="linkedin" data-tags="linkedin, social" d="M256 476.16c-135.731 0-245.76-110.029-245.76-245.76s110.029-245.76 245.76-245.76 245.76 110.029 245.76 245.76-110.029 245.76-245.76 245.76zM195.84 128.537h-49.767v160.128h49.767v-160.128zM170.649 308.327c-15.719 0-25.881 11.161-25.881 24.909 0 14.080 10.47 24.883 26.522 24.883s25.881-10.803 26.189-24.883c0.025-13.773-10.137-24.909-26.829-24.909zM377.575 128.537h-49.741v88.755c0 20.634-7.219 34.688-25.216 34.688-13.747 0-21.913-9.498-25.549-18.662-1.305-3.251-1.639-7.859-1.639-12.416v-92.339h-49.792v109.056c0 19.968-0.64 36.685-1.305 51.072h43.213l2.304-22.246h0.973c6.553 10.471 22.605 25.856 49.459 25.856 32.743 0 57.293-21.913 57.293-69.069v-94.695z" />
<glyph unicode="&#xe927;" glyph-name="ProjectorScreen" data-tags="Projector Screen" d="M512 394.666v85.334h-512v-85.334h32v-277.334h-32v-21.334h245.333v-128h21.333v128h245.334v21.334h-32v277.334h32zM21.334 458.666h469.334v-42.666h-469.334v42.666zM458.666 117.334h-405.334v277.334h405.334v-277.334z" />
<glyph unicode="&#xe928;" glyph-name="VideoCamera" data-tags="Video Camera" d="M288 341.333h-46.934l-32 64h-145.066v-21.333h132.267l21.334-42.667h-217.6v-277.333h288c53.334 0 96 42.666 96 96v85.334c0 52.267-42.666 96-96 96zM362.666 160c0-41.6-33.067-74.666-74.666-74.666h-266.666v234.666h266.666c41.6 0 74.666-34.133 74.666-74.666v-85.334zM403.2 202.666l108.8-150.4v300.8l-108.8-150.4zM490.666 118.4l-61.867 84.267 61.866 84.267v-168.534z" />
<glyph unicode="&#xe929;" glyph-name="Settings" data-tags="Settings" d="M256 309.333c-47.129 0-85.334-38.205-85.334-85.333s38.205-85.334 85.334-85.334c47.129 0 85.334 38.205 85.334 85.334s-38.205 85.334-85.334 85.334zM256 160c-35.346 0-64 28.654-64 64s28.654 64 64 64c35.346 0 64-28.654 64-64s-28.654-64-64-64zM459.52 175.040l52.48 3.84v92.906l-52.48 3.84c-18.207 1.615-32.375 16.794-32.375 35.283 0 8.683 3.125 16.637 8.313 22.798l33.876 39.626-65.173 65.814-39.786-34.346c-6.070-5.251-14.043-8.45-22.761-8.45-5.039 0-9.829 1.068-14.154 2.991-11.678 4.633-20.135 15.628-21.105 28.707l-3.954 51.951h-92.906l-3.84-54.4c-0.853-12.267-8.214-20.267-19.413-30.933v0l-2.24 1.6c-3.636-1.399-7.842-2.21-12.238-2.21-9.21 0-17.589 3.559-23.837 9.376l-40.085 35.074-65.707-65.173 34.453-39.786c5.176-6.089 8.323-14.043 8.323-22.731 0-18.428-14.161-33.548-32.194-35.073l-52.716-3.956v-92.906l52.48-3.84c18.086-1.68 32.134-16.781 32.134-35.164 0-8.597-3.073-16.476-8.18-22.599l-34.301-40.157 65.707-65.707 39.893 34.454c6.065 5.233 14.023 8.419 22.726 8.419 5.012 0 9.777-1.057 14.084-2.961 11.753-5.188 20.161-16.558 21.104-29.986l3.846-53.445h92.906l3.84 53.334c0.995 13.439 9.399 24.697 21.106 29.779l2.147 1.048c3.618 1.404 7.805 2.219 12.183 2.219 8.656 0 16.57-3.183 22.633-8.442l39.851-34.31 65.707 65.707-34.346 40.106c-5.251 6.070-8.45 14.043-8.45 22.761 0 5.039 1.068 9.829 2.991 14.154 5.002 11.584 16.161 19.886 29.352 20.786zM419.307 103.040l21.334-24.853-37.654-37.654-24.853 21.334c-9.729 8.468-22.531 13.63-36.537 13.63-7.797 0-15.22-1.599-21.959-4.488l-1.77-0.928c-18.511-8.581-31.462-26.341-33.055-47.275l-2.252-33.471h-53.334l-2.453 33.387c-1.631 21.862-15.333 40.167-34.403 48.391-6.747 2.892-14.171 4.492-21.968 4.492-14.006 0-26.808-5.162-36.605-13.688l-24.786-21.276-37.867 37.546 21.334 24.853c8.433 9.83 13.567 22.706 13.567 36.78 0 29.637-22.761 53.957-51.757 56.433l-32.956 2.468v53.334l32.746 2.453c29.296 2.391 52.166 26.756 52.166 56.463 0 14.067-5.128 26.936-13.617 36.84l-21.269 24.777 37.44 37.44 24.853-21.334c9.793-8.698 22.762-14.012 36.973-14.012 6.827 0 13.367 1.227 19.413 3.471l-0.386-0.125 2.346 1.173c19.48 7.822 33.32 25.843 34.975 47.277l2.358 32.19h53.334l2.454-32c2.791-28.983 27.021-51.461 56.5-51.461 14.045 0 26.897 5.102 36.806 13.553l24.774 21.267 37.654-37.654-21.334-24.853c-8.359-9.822-13.443-22.654-13.443-36.674 0-29.69 22.8-54.054 51.846-56.538l32.743-2.361v-53.334l-32.746-2.454c-29.257-2.499-52.057-26.863-52.057-56.553 0-14.020 5.084-26.853 13.51-36.755z" />
<glyph unicode="&#xe92a;" glyph-name="Tag" data-tags="Tag" d="M256 480l-160-133.76v-282.24c0-53.019 42.981-96 96-96h128c53.019 0 96 42.981 96 96v282.24zM394.666 64c0-41.238-33.43-74.666-74.666-74.666h-128c-41.238 0-74.666 33.43-74.666 74.666v272.426l138.666 115.52 138.667-115.52v-272.426zM202.667 309.333c0-29.455 23.878-53.333 53.333-53.333s53.334 23.878 53.334 53.334c0 29.455-23.878 53.334-53.334 53.334s-53.334-23.878-53.334-53.334zM288 309.333c0-17.673-14.327-32-32-32s-32 14.327-32 32c0 17.673 14.327 32 32 32s32-14.327 32-32z" />
<glyph unicode="&#xe92b;" glyph-name="Heart2" data-tags="Heart" horiz-adv-x="640" d="M435.2 437.334c-48.356 0-92.8-26.844-115.2-69.778-33.422 63.644-112.089 88.089-175.733 54.666-42.755-22.4-69.511-66.666-69.6-114.933 0-71.822 44.622-137.422 102.222-191.289 44.445-39.378 92.356-74.666 143.111-105.422 50.4 31.289 98.311 66.578 143.111 105.422 64 58.489 102.222 119.466 102.222 191.289s-58.222 130.044-130.044 130.044c0 0-0.089 0-0.089 0z" />
<glyph unicode="&#xe92c;" glyph-name="Help" data-tags="Help" d="M256 480c-141.385 0-256-114.615-256-256s114.615-256 256-256c141.385 0 256 114.615 256 256s-114.615 256-256 256zM256-10.666c-129.603 0-234.667 105.064-234.667 234.667s105.064 234.667 234.667 234.667c129.603 0 234.667-105.064 234.667-234.667s-105.064-234.667-234.667-234.667zM264.426 362.666c-2.529 0.304-5.459 0.477-8.428 0.477-41.238 0-74.666-33.43-74.666-74.667 0-0.168 0-0.335 0.001-0.503l21.333 0.026c0.017 29.443 23.888 53.305 53.334 53.305 29.455 0 53.334-23.878 53.334-53.334 0-19.767-10.753-37.022-26.728-46.234-22.555-13.329-37.272-37.254-37.272-64.615 0-0.094 0-0.189 0-0.284v-16.839h21.334v16.853c-0 0.074-0 0.161-0 0.248 0 19.464 10.426 36.491 25.998 45.805 23.401 13.114 38.795 37.502 38.795 65.486 0 38.548-29.212 70.274-66.706 74.248zM277.334 106.666c0-11.782-9.551-21.334-21.334-21.334s-21.334 9.551-21.334 21.334c0 11.782 9.552 21.334 21.334 21.334s21.334-9.551 21.334-21.334z" />
<glyph unicode="&#xe92d;" glyph-name="Pin-1" data-tags="Pin - 1" d="M407.147 416l-1.067 1.067c-38.335 38.526-91.397 62.369-150.026 62.369s-111.692-23.842-150.018-62.361l-1.182-1.075c-38.465-38.582-62.248-91.821-62.248-150.613s23.783-112.031 62.253-150.618l151.142-146.768 151.147 147.307c38.306 38.555 61.983 91.686 61.983 150.346s-23.676 111.791-61.994 150.358zM392.106 130.346l-136.107-132.16-136.107 132.16c-34.6 34.721-55.992 82.622-55.992 135.52s21.392 100.8 55.997 135.526l1.168 1.168c34.49 34.667 82.233 56.122 134.987 56.122s100.496-21.454 134.978-56.114l1.075-1.075c34.631-34.726 56.044-82.649 56.044-135.573s-21.413-100.848-56.049-135.577zM256 341.333c-35.346 0-64-28.654-64-64s28.654-64 64-64c35.346 0 64 28.654 64 64s-28.654 64-64 64zM256 234.667c-23.564 0-42.666 19.102-42.666 42.667s19.102 42.666 42.666 42.666c23.564 0 42.666-19.102 42.666-42.666s-19.103-42.666-42.666-42.666z" />
<glyph unicode="&#xe92e;" glyph-name="User" data-tags="User" d="M155.52 300.48c10.774-59.414 50.24-97.814 100.48-97.814s88.853 37.44 100.48 97.707c1.067 5.76 10.666 56.64 11.413 68.373 0.067 1.384 0.104 3.006 0.104 4.637 0 27.854-11.064 53.124-29.036 71.655-21.041 21.595-50.442 35.006-82.975 35.006-32.898 0-62.593-13.714-83.68-35.737-17.5-18.172-28.255-42.865-28.255-70.071 0-2.007 0.059-4 0.174-5.978 0.627-11.247 10.227-62.127 11.294-67.78zM187.52 429.546c17.228 17.94 41.414 29.086 68.203 29.086 26.476 0 50.409-10.887 67.567-28.429 14.319-14.717 23.137-34.814 23.137-56.971 0-1.278-0.029-2.549-0.087-3.813 0.007-7.501-6.82-43.021-10.66-65.101-7.574-38.827-32.426-80.32-79.68-80.32s-72.746 43.2-79.466 80.427c-4.267 22.080-10.666 57.707-10.666 65.386-0.087 1.397-0.137 3.029-0.137 4.673 0 21.358 8.381 40.76 22.034 55.094zM500.053 68.053c-5.12 29.866-30.293 52.693-67.947 61.12l-176.106 30.827-176.534-31.040c-36.48-7.574-62.294-31.040-67.52-61.44l-11.947-99.52h512zM22.826-10.666l10.134 74.666c4.373 25.387 29.12 39.254 50.56 43.733l172.48 30.933 171.947-30.187c13.654-3.094 45.866-13.546 50.986-43.413l10.666-75.52h-466.774z" />
<glyph unicode="&#xe92f;" glyph-name="Fail" data-tags="Fail" d="M256 480c-141.385 0-256-114.615-256-256s114.615-256 256-256c141.385 0 256 114.615 256 256s-114.615 256-256 256zM256-10.666c-129.603 0-234.667 105.064-234.667 234.667s105.064 234.667 234.667 234.667c129.603 0 234.667-105.064 234.667-234.667s-105.064-234.667-234.667-234.667zM344.426 327.573l-88.427-88.533-88.427 88.533-15.147-15.146 88.534-88.427-88.534-88.427 15.147-15.147 88.427 88.534 88.427-88.534 15.147 15.147-88.534 88.427 88.534 88.427-15.147 15.147z" />
</font>
</defs>
</svg>
