<svg xmlns="http://www.w3.org/2000/svg" xmlns:xlink="http://www.w3.org/1999/xlink" version="1.1" x="0px" y="0px" viewBox="0 0 100 100" enable-background="new 0 0 100 100" xml:space="preserve" height="100px" width="100px">
<g>
	<path d="M50,21.005c4.964,0,9.625,1.315,13.663,3.605c-0.118-0.69-0.186-1.391-0.186-2.1c0-0.533,0.044-1.054,0.108-1.57   C59.48,18.93,54.87,17.798,50,17.798c-4.878,0-9.493,1.136-13.603,3.151c0.063,0.513,0.106,1.031,0.106,1.56   c0,0.713-0.069,1.418-0.188,2.112C40.358,22.324,45.027,21.005,50,21.005z"/>
	<path d="M77.792,48.74c0,0.019,0.001,0.038,0.001,0.058c0,10.492-5.845,19.642-14.448,24.372c0.764,0.777,1.453,1.618,2.061,2.512   C74.714,70.326,81,60.286,81,48.798c0-0.019-0.001-0.038-0.001-0.058H77.792z"/>
	<path d="M36.636,73.159c-8.593-4.733-14.429-13.877-14.429-24.361c0-0.019,0.001-0.038,0.001-0.058h-3.207   c0,0.019-0.001,0.038-0.001,0.058c0,11.478,6.276,21.512,15.571,26.87C35.18,74.775,35.87,73.935,36.636,73.159z"/>
	<path d="M91.641,43.982c-0.109-6.219-4.119-11.525-9.746-13.72c2.371-1.763,3.916-4.577,3.916-7.752   c0-5.331-4.336-9.667-9.667-9.667c-5.33,0-9.667,4.336-9.667,9.667c0,3.176,1.546,5.99,3.918,7.753   c-5.706,2.225-9.751,7.646-9.751,13.978c0,0.829,0.671,1.5,1.5,1.5h28c0.007-0.001,0.013,0,0.02,0c0.829,0,1.5-0.671,1.5-1.5   C91.664,44.152,91.656,44.066,91.641,43.982z M69.477,22.51c0-3.676,2.991-6.667,6.667-6.667c3.676,0,6.667,2.991,6.667,6.667   c0,3.676-2.991,6.667-6.667,6.667C72.468,29.176,69.477,26.186,69.477,22.51z M63.74,42.74c0.768-5.947,6.038-10.564,12.404-10.564   S87.78,36.794,88.547,42.74H63.74z"/>
	<path d="M37.856,45.74c0.829,0,1.5-0.671,1.5-1.5c0-0.088-0.008-0.175-0.022-0.259c-0.109-6.219-4.119-11.525-9.746-13.72   c2.371-1.763,3.916-4.577,3.916-7.752c0-5.331-4.336-9.667-9.667-9.667c-5.33,0-9.667,4.336-9.667,9.667   c0,3.176,1.546,5.99,3.918,7.753c-5.706,2.225-9.751,7.646-9.751,13.978c0,0.829,0.671,1.5,1.5,1.5h28   C37.843,45.739,37.849,45.74,37.856,45.74z M17.17,22.51c0-3.676,2.991-6.667,6.667-6.667c3.676,0,6.667,2.991,6.667,6.667   c0,3.676-2.991,6.667-6.667,6.667C20.161,29.176,17.17,26.186,17.17,22.51z M11.432,42.74c0.768-5.947,6.038-10.564,12.404-10.564   S35.473,36.794,36.24,42.74H11.432z"/>
	<path d="M55.741,71.678c2.371-1.763,3.916-4.577,3.916-7.752c0-5.331-4.336-9.667-9.667-9.667c-5.33,0-9.667,4.336-9.667,9.667   c0,3.176,1.546,5.99,3.918,7.753c-5.706,2.225-9.751,7.646-9.751,13.978c0,0.829,0.671,1.5,1.5,1.5h28c0.007-0.001,0.013,0,0.02,0   c0.829,0,1.5-0.671,1.5-1.5c0-0.088-0.008-0.175-0.022-0.259C65.379,79.179,61.368,73.873,55.741,71.678z M43.323,63.927   c0-3.676,2.991-6.667,6.667-6.667c3.676,0,6.667,2.991,6.667,6.667c0,3.676-2.991,6.667-6.667,6.667   C46.314,70.593,43.323,67.602,43.323,63.927z M37.586,84.157c0.768-5.947,6.038-10.564,12.404-10.564s11.636,4.617,12.404,10.564   H37.586z"/>
</g>
</svg>