<?xml version="1.0" encoding="utf-8"?>
<!-- Generator: Adobe Illustrator 17.1.0, SVG Export Plug-In . SVG Version: 6.00 Build 0)  -->
<!DOCTYPE svg PUBLIC "-//W3C//DTD SVG 1.1//EN" "http://www.w3.org/Graphics/SVG/1.1/DTD/svg11.dtd">
<svg version="1.1" id="Layer_1" xmlns="http://www.w3.org/2000/svg" xmlns:xlink="http://www.w3.org/1999/xlink" x="0px" y="0px"
	 viewBox="0 0 792 612" enable-background="new 0 0 792 612" xml:space="preserve">
<path d="M387.5,588.7C229.4,588.3,100.1,461.2,100.3,301C100.5,141.7,229.4,13.9,388,14.3c159.1,0.4,286.6,128.4,286.5,287.4
	C674.5,462.8,543.7,588.6,387.5,588.7z M601,218.9c-1.4-4.2-2.7-8.6-6.9-10.9c-0.4,0.2-0.8,0.4-1.2,0.7c1.4,3.6,2.9,7.1,4.3,10.9
	c1.4-0.3,2.6-0.5,3.9-0.7c0.2,1.5,0.1,3.1,0.6,4.6c0.5,1.5,1.6,4,2.2,4c1.8-0.1,3.6-1.2,5.1-2.3c1.1-0.9,1.6-2.4,2.3-3.7
	C606.8,223.8,603.8,221.7,601,218.9z M613.8,226.3c1,1.7,1.6,3.2,2.5,4.5c4.9,6.1,4.1,13.5-2.6,18c-5,3.4-10.5,6.2-15.6,9.5
	c-1.3,0.9-2.5,2.6-2.8,4.1c-0.7,2.9-2.1,2.8-3.8,1.3c-0.9-0.8-1.6-2-2.1-3.1c-2-4.9-3.8-9.9-5.9-14.9c-2.3-5.6-4.8-11.1-7.2-16.6
	c-0.2-0.5-0.4-1.2-0.8-1.5c-4-2.4-4.2-6.8-5.8-10.5c-0.8-1.8-2.3-3.3-3.4-5c-0.9,5.6,1.7,12.1,6.7,19.6c0.8,1.1,1.8,2.5,1.8,3.7
	c-0.2,7,3.1,12.5,7.2,17.7c2.6,3.4,5.2,6.7,7.6,9.8c-0.9,1.9-1.6,3.4-2.9,6.1c6.4-1.4,11.6-2.6,17-3.8c0.1,0.6,0.4,1.3,0.3,1.9
	c-2,12.1-5.6,23.7-13,33.7c-0.4,0.6-0.5,1.3-0.9,1.9c-1.6,2.8-3.1,5.7-5,8.2c-1.8,2.5-4.3,4.5-6.1,7c-3,4.2-2.3,7.5,0.7,11.5
	c1.7,2.3,3.4,5.6,3.2,8.3c-0.5,8,0,16.7-9.1,21.1c-0.5,0.2-0.9,0.7-1.3,1.1c-3.2,3.2-6.1,6.1-4.2,11.6c1,2.8,0,8.5-1.9,9.5
	c-2.9,1.5-4.2,3.4-5.2,5.9c-2.5,6.4-3.9,13.5-10.8,17.1c-0.5,0.3-0.5,1.3-1,1.8c-2.3,2.8-4.4,5.8-7.1,8.3
	c-6.4,5.9-15.2,5.3-22.9,7.7c-3.3,1-6-2.8-5.5-6.3c0.2-1.7-0.1-3.6-0.7-5.3c-2.8-7.7-5.8-15.2-8.6-22.9c-1.8-5-3.1-10.2-5.3-15.1
	c-2-4.3-3-8.5-1.5-13.1c1.5-4.9,3.6-9.6,4.5-14.6c0.6-3,0.2-6.6-1.1-9.3c-3.8-7.7-8.4-14.9-12.3-22.5c-1-2-0.9-4.8-0.6-7.1
	c0.8-4.9,1.7-9.7-0.6-14.7c-4.8,2.6-8-0.1-11.1-3c-4-3.8-8.4-4.3-13.3-2.1c-2.8,1.3-5.7,2.5-8.4,4c-3,1.6-5.9,1.8-8.8-0.2
	c-3.3-2.2-6.6-1.9-10-0.1c-6.7,3.6-11.7,3.2-16.7-2.5c-3.6-4.1-6.4-9-8.9-13.8c-2-3.9-3.8-7.6-8-9.9c-4.1-2.2-5.5-10.2-4.4-14.8
	c1.3-5.1,3.3-11.2,1.6-15.6c-2.5-6.2,0.1-10,2.7-14.5c1.4-2.5,2.5-5.2,4.2-7.3c2.7-3.4,5.3-7.5,8.9-9.4c5.1-2.8,7.1-6.9,9.1-11.7
	c1.3-3.2,2.4-7.4,5-9.1c4.2-2.8,5.4-7.2,8.9-11.2c-2.8-0.7-4.9-1.3-7-1.7c-5.8-1-5.8-1.1-5.4-7c0.4-4.6,1-9.3,0.6-13.9
	c-0.4-5.1,0.5-6.9,5.8-6.5c4.4,0.3,8.7,0.9,13,1.8c6.7,1.3,7.2-2.4,6-7.4c-0.5-2.2-2.6-4.3-4.4-6c-1.5-1.4-3.7-2-5.4-3.4
	c-0.8-0.7-1.3-2-1.4-3.1c-0.1-0.6,0.6-1.8,1.1-1.9c4.3-1,8.6-1.9,12.9-2.8c-5-4.1-11.6,1.1-16.9-2.6c1.2-1.4,2.3-2.7,3.4-4
	c-1.3-0.8-2.5-1.5-4.4-2.6c2.2-0.8,3.4-1.2,4.7-1.7c-0.3-1.6-0.5-3-0.8-4.5c1.4-0.6,2.7-1.1,4-1.6c-1.7-4-3.3-5-5.4-2.9
	c-1,0.9-1,3-1.1,4.6c-0.3,3.1-4.2,7.2-7.6,6.6c-2.6-0.5-5.3-2.7-6.9-5c-1.1-1.7-0.5-4.6-0.6-6.7c4.5-1.8,8.8-3.6,15-6.1
	c-1.5-0.4-2.9-0.7-3.9-1c1.3-3.3,1.9-6.5,3.7-8.7c1.2-1.4,4-1.6,6.2-2c0.3-0.1,1,1.9,1.8,3.4c4.1,1.1,4.1,1.1,1.8,7.1
	c0.8,0.5,2.3,1.1,2.3,1.6c-0.1,3.4,2.6,4.6,4.5,6.6c0.8,0.9,1.1,2.3,1.7,3.4c0.4,0.8,0.9,2.1,1.6,2.2c4,0.8,4.4,3.1,3.3,7
	c2.3-0.8,4.7-1.5,5.5-3.1c1.8-4,5.1-4.5,8.7-4.9c1.5-0.2,3.1-0.2,4.4-0.3c-0.5-3.5-1.3-6.6-1.2-9.8c0-3.3,2.3-5.9,5.6-5.7
	c1,0.1,2.7,4.1,2.5,6.1c-0.5,3.7-1.3,6.9,3.1,8.6c0.3,0.1,0.6,0.7,0.6,1.1c0,5.4,4.1,5.1,7.5,5.1c4.8,0,9.5-0.4,14.7-0.7
	c0.3-1.3,0.8-2.9,1.2-4.5c1.7-7.5,2.9-8,9.2-3.2c-2-9.2-10.2-10.5-15.6-14.6c-4.7,2.7-5.5,7-6,11.7c-0.2,1.5-1.1,4.2-1.6,4.2
	c-3.5,0-7.3,0-10.6-1.1c-2.2-0.7-2.7-3.2,0.2-4.8c0.7-0.4,1.4-0.9,2.4-1.6c-1.4-1.8-2.7-3.4-3.9-5.2c-1.2-1.9-2.3-3.8-3.6-6.1
	c-1.2,0.6-2.5,1.1-3.7,1.8c-6.2,3.7-10.5,2.2-12.5-4.9c-1-3.6-0.9-7.5-1.3-11.7c-0.5-0.2-1.5-0.7-2.6-1c-21.2-6.7-42.8-10.7-65-11.7
	c-20.5-1-40.7,0.9-60.9,4.8c-3.8,0.7-6.3,3-6.5,6.5c-0.4,6.3-5,8.9-9.3,11.8c-0.6,0.4-1.7-0.1-2.6-0.3c-1.9-0.5-3.7-1.5-5.6-1.5
	c-2.5,0-3.8-0.9-3.9-3.3c-0.3-4.2-1.6-5.3-5.3-3.7c-10.8,4.6-21.6,9.3-32.2,14.2c-3.6,1.7-7,4-10.5,6c0.2,0.4,0.4,0.7,0.5,1.1
	c2.2-0.9,4.4-1.8,6.9-2.9c1.5,5.5,2.8,10.7,4.6,15.8c0.5,1.5,2.3,3.2,3.8,3.5c3.8,0.8,5.3,4,6.9,6.4c0.8,1.1-1.3,4.7-2.8,6.6
	c-1.2,1.6-3.4,2.3-5.2,3.5c-0.9,0.6-1.7,1.3-2.5,1.9c-1.9,1.4-3.7,2.9-5.7,4c-1.5,0.8-3.3,1-6,1.8c2.6,0.8,3.9,1.2,5.5,1.7
	c-2.1,4.4-9.3,0.2-9.8,6.4c2.2,0.6,4.3,1.1,6.9,1.7c-1.4,1.6-2.2,2.5-3,3.4c4.3,2.6,4.4,3.7,0.4,6.1c-3.7,2.2-7.6,4.1-11.8,6.4
	c-0.4-1.9-0.7-3.3-1.2-5.4c-3.1,4.2-11.7,3.2-9.6,11.7c-2.3,2-5.2,3.9-7.2,6.5c-3.4,4.3-8.5,9-8.8,13.8c-0.5,6.9-4,9.8-8.7,12.8
	c-4.5,2.9-6.4,7-5.9,12.3c0.3,3.2,0.9,6.5,0.7,9.7c-0.2,2.6-1.3,5.2-2,7.8c-0.6,0-1.2,0-1.7-0.1c-1.3-4.5-2.6-9.1-3.9-13.8
	c-2.9-0.3-5.9-0.5-8.7-0.7c-1.7,2.1-0.2,7-4.9,4.8c-5-2.3-7.3-1.6-10.5,3.9c3.9,3.2,6.8,8.2,13.4,5.9c1.5-0.5,3.7,0.1,5.4,0.7
	c3.4,1.1,5.2,3.6,5.1,6.9c-3.3,1-6.3,1.9-8.6,2.6c2,7-2.9,12.2-2.9,18c8.2-0.7,9.5,0.6,9.5,8.5c0,1.6-0.2,3.1,0,4.7
	c0.4,2.7,1.1,5.3,1.5,7.2c5.1,0,9,0,13.3,0c1.6-4.5,5.4-7.3,10-9.1c2.8-1.1,5.7-1.2,8,1.6c3.6,4.3,7.6,4.9,12.9,2.9
	c2-0.7,5.4-0.8,6.7,0.4c4.6,4.3,8.6,9.2,12.9,13.9c0.5,0.5,1.5,0.6,2.3,0.6c12.1,1,17,4.7,19.8,16.1c0.9,3.8,3,5.1,6.4,6.2
	c3.6,1.1,7.3,2.6,10.1,4.9c2,1.7,3.7,2.4,6.2,2.5c9.6,0.5,18.3,3.8,25.5,10.2c4.6,4.1,5.6,7.9,2.5,13.2c-2.6,4.5-6.2,8.4-9.1,12.8
	c-1,1.5-1.9,3.4-1.9,5.1c-0.1,8.3-0.4,16.5-4,24.1c-1,2.2-4.1,5.2-5.9,4.9c-5.9-0.8-9.6,2.7-13.8,5.2c-3,1.8-4.2,4.3-3.4,7.9
	c0.3,1.5,0.3,3.5-0.4,4.8c-2.1,4-4.6,7.8-7,11.6c-3,4.6-5.8,9.7-12.9,8c2.3,9.7,0.2,11.9-11,12.2c-0.1,1.9-0.2,3.8-0.3,6
	c-2.1,0-3.9,0-5.6,0c0.9,1.2,2.2,1.5,3,2.3c0.5,0.5,0.5,2.5,0.3,2.5c-4,1.1-2.1,4.3-2.2,6.4c-1.4,0.7-2.6,1.3-4,2.1
	c1.1,1,1.6,1.7,2.3,2.1c3.8,1.8,3.7,4.2,1.7,7.5c-4.1,6.9-4,7.4,1.7,13.4c2.7,2.9,5.8,5.5,8.8,8.4c-8.3,2.3-16.1-1.3-15.7-5.6
	c-3-2.3-6.2-3.8-7.7-6.3c-2.7-4.4-4.2-9.5-6.4-14.2c-1-2.1-2.5-3.9-3.4-6c-0.5-1.1-0.4-2.7-0.1-3.9c0.3-1.5,1.8-3.1,1.6-4.3
	c-0.7-3.6-1.8-7.2-3.2-10.5c-2.6-5.9-2.7-12-2.1-18.3c0.5-5.6,0.5-11.3,0.1-16.9c-0.6-9.8-2.1-19.5-2.4-29.2
	c-0.2-5.9-3.1-10-7.6-12.4c-4.1-2.2-6.6-5.3-8.5-9c-2.3-4.5-4-9.4-6.1-14c-0.8-1.7-2.1-3.2-3-4.8c-1.6-3-4.2-6.1-4.3-9.3
	c-0.1-3.6-0.3-7.2-0.2-10.7c0.1-3.8,2.2-7.9,4.2-11.3c3.1-5.3,2.7-10.6,1.4-16c-0.4-1.5-1.7-2.8-2.9-4.8c-1.1,2.2-1.7,3.4-2.4,4.7
	c-5.6-1.7-9.8-5-11.8-10c-1.4-3.4-3.3-5.7-6.2-7.6c-3.6-2.3-6.9-5-10.5-7.6c-1.2,0.1-3.3,1.1-4.7,0.4c-3.4-1.7-6.6-3.9-9.6-6.2
	c-3-2.3-4.5-5.6-3.6-9.4c1.3-5.5-1.6-9.3-4.6-13.9c-0.5,4.1,3.4,7.5-0.7,11.4c-1-2.5-1.8-4.5-2.7-6.7
	c-32.7,104.9,13.5,233.1,126,289.1c0.2-2.3,0.3-4.3,0.6-7.1c-4.7,1.9-7.6,1.1-9.9-3.4c2.7,0,4.5,0,6.4,0c0.3-1.2,0.3-2.1,0.8-2.8
	c0.4-0.7,1.4-1.9,1.8-1.8c0.9,0.3,2.5,1.3,2.4,1.9c-0.5,4.6,4.2,5,5.7,8c-2.5-8.6-1.8-11.6,3.5-13.8c4.4-1.9,8.2-0.9,10,2.5
	c-1.7,0.7-3.6,1.1-5,2.1c-2,1.4-3.4,3.4-0.9,5.6c7.9,6.7,15.9,13.2,23.8,19.9c1.6,1.3,2.6,3.2,3.9,4.8c0.7,1.1,2,1.5,3.4,1.9
	c22.3,5.8,44.8,9.5,67.9,7.3c2.2-0.2,4.5-0.8,6.5-1.7c3.7-1.7,7.1-4.2,11-5.6c3.5-1.3,7.3-1.6,10.9-2.3c1.7-0.4,4-0.2,5.2-1.2
	c8.3-7.3,18.6-8.5,28.9-10c1.7-0.2,3.5-0.8,5-0.4c4.8,1.1,9.5,2.6,14.3,3.8c1,0.2,2.3-0.4,3.5-0.7c3.2-1,6.3-2.1,9.5-3.1
	c3.1-0.9,6.4-1.2,9.2-2.6c39.9-19.4,72.6-47.3,97-84.4c41.5-63.1,52-131.5,32.6-204.4C622.8,227.3,622.1,226.9,613.8,226.3z
	 M440.5,172.4c3.7,2.7,7.9,2,11.8,0.4c9.3-4,19-4.1,28.8-3.1c1.6,0.2,3.3-0.1,4.8-0.7c3.4-1.2,6.8,0.5,7.9,4
	c0.9,2.9,1.4,6.7,3.5,8.5c4.3,3.8,9.5,6.6,14.4,9.7c3.1,2,6.4,3.8,10.2,6c0-1.6-0.1-2.3,0-3c0.2-1.8,0.2-5.1,0.9-5.2
	c3.1-0.6,7.6-1.9,9.4-0.3c9.3,7.6,20.3,7.7,31.7,8.9c0.3-6.2,0.6-11.9,1-18c-3.9,0.4-7.7,2.6-10.6-1.2c-0.2-0.3-1.1,0-1.6,0
	c-8.3,0.7-13.9-4.3-14.5-12.6c-0.2-2.7-0.2-5.8-4.9-6.8c0.8,3.9,1.6,7.3,2,10.7c0.2,1.6-0.4,3.4-1.2,4.8c-0.4,0.7-1.8,0.9-3.4,1.7
	c-3.9-1.5-7.3-4.1-9.5-8.9c-1.7-3.7-2.8-7.7-4-11.6c-1.1-3.7-4.3-5.3-7.9-3.6c0.9,4,7.8,4.2,6.3,10c-1.6-0.6-3-1.1-4.6-1.7
	c0.4,1.5,0.8,2.7,1.2,4c-2.6,1.6-5,3.2-7.4,4.7c-0.2-0.3-0.5-0.6-0.7-0.8c0,1.4,0,2.8,0,4.9c-1.7-0.2-3.8,0.3-4.6-0.5
	c-2.3-2.4-5.6-4.5-4.6-8.4c3.3,0,6.3,0,9.3,0c0.3-0.4,0.7-0.9,1-1.3c-2.4-3-4.4-6.3-7.2-8.9c-3.9-3.7-8.2-6.9-12.5-10.1
	c-0.7-0.5-2-0.4-3-0.2c-4.5,0.7-8.9,1.6-14.1,2.5c-1.4,1.6-3.8,4-5.7,6.7c-1.8,2.6-3,5.6-4.5,8.4c-1,1.8-1.6,4.5-3.2,5.3
	C450.4,169,445.5,170.5,440.5,172.4z M554.2,146.7c0.2-0.3,0.3-0.7,0.5-1c-2.2-1.4-4.3-3.5-6.7-4c-1-0.2-2.8,2.9-4,4.6
	c-0.8,1.1-1.4,2.5-2,3.7c-1.1,2.4,1.9,6.6,4.6,6.1c6.7-1.4,12.9,0.2,19.1,2.4c3.9,1.3,7.9,2.1,12.5,3.3c-2-6-2.2-6.3-7.1-4.2
	c-2.5,1.1-4.3,0.4-5.4-1.5c-1-1.5-1.5-3.5-1.6-5.4c-0.1-1.2,1.1-2.4,1.6-3.6c-0.3-0.2-0.5-0.3-0.8-0.5c0.7-0.2,1.5-0.4,2.2-0.7
	c0-0.4,0.1-0.8,0.1-1.2c-1.8-0.4-3.7-0.9-6.3-1.5c1,1.8,1.5,2.7,2.3,4C559.8,147.2,557,147,554.2,146.7z M598.9,179.2
	c-0.4-6.6-12-25.2-19.8-31.4c2.2,4.3,4.9,8.4,7.3,12.6c0.8,1.5,1.5,3.5,1.2,5.2C586.2,174.1,590.2,179.1,598.9,179.2z M185.7,229.4
	c-4.1-2.4-7.3,1.8-10.9,0.7c-0.3,0.4-0.6,0.8-1,1.2c1.4,2.9,2.8,5.8,3.7,7.6c-0.7,2.6-1.4,4.2-1.3,5.7c0.1,1.1,1.6,3.2,2,3.1
	c1.9-0.5,4.1-1.2,5.3-2.7c2-2.4,3.3-5.4,4.5-7.4c-2.2-1.6-4.3-3.2-6.3-4.7C182.6,232,183.7,231.1,185.7,229.4z M222.7,131.2
	c4.5-1.3,4.6-4.8,3.8-7.9c-0.8-3.3,0.6-4.8,2.7-6.6c4.1-3.5,4.7-4.7,4.7-7.9C222.1,117.1,219.1,123.1,222.7,131.2z M292.7,525.7
	c-1.2-2.3-1.7-3.4-2.3-4.4c0,0.5-0.1,0.9-0.1,1.4c-2.6,0.5-5.2,1-7.8,1.5c0,0.3-0.1,0.7-0.1,1C285.5,525.3,288.6,525.5,292.7,525.7z
	 M208.6,152.1c0.2-0.5,0.4-0.9,0.6-1.4c-1-1-1.8-2.5-2.9-2.8c-0.8-0.2-2,1.3-3.1,2c0.1,0.5,0.1,1,0.2,1.5
	C205.2,151.7,206.9,151.9,208.6,152.1z"/>
</svg>
